{"title":"Falling.Skies.S02E03.HDTV.DivX-Atilla82","uid":7395715,"size":367033366,"categoryP":"video","categoryS":"tv_shows","magnet":"?xt=urn:btih:c122fce8c91a3adf30f0ec7c3f5b0a11cffa48b9&amp;dn=Falling.Skies.S02E03.HDTV.DivX-Atilla82&amp;tr=udp%3A%2F%2Ftracker.openbittorrent.com%3A80&amp;tr=udp%3A%2F%2Fopen.demonii.com%3A1337&amp;tr=udp%3A%2F%2Ftracker.coppersurfer.tk%3A6969&amp;tr=udp%3A%2F%2Fexodus.desync.com%3A6969","seeders":1,"leechers":0,"uploader":"Atilla82","files":4,"time":1340910324,"description":"Falling.Skies.S02E03.HDTV.DivX-Atilla82\n\n\n &lt;a href=&quot;\nhttp://www.imdb.com/title/tt1462059/&quot; rel=&quot;nofollow&quot; target=&quot;_NEW&quot;&gt;\nhttp://www.imdb.com/title/tt1462059/&lt;/a&gt;\n\n\nSurvivors of an alien attack on earth gather together to fight for their lives and fight back.\n\nlanguage: English\n\n\n\n\nGeneral\nComplete name : Falling.Skies.S02E03.HDTV.DivX-Atilla82.avi\nFormat : AVI\nFormat/Info : Audio Video Interleave\nFile size : 350 MiB\nDuration : 42mn 4s\nOverall bit rate : 1 163 Kbps\nWriting application : VirtualDubMod 1.5.10.2 (build 2540/release)\nWriting library : VirtualDubMod build 2540/release\n\nVideo\nID : 0\nFormat : MPEG-4 Visual\nFormat settings, BVOP : 1\nFormat settings, QPel : No\nFormat settings, GMC : No warppoints\nFormat settings, Matrix : Default (H.263)\nMuxing mode : Packed bitstream\nCodec ID : DX50\nCodec ID/Hint : DivX 5\nDuration : 42mn 4s\nBit rate : 1 026 Kbps\nWidth : 680 pixels\nHeight : 384 pixels\nDisplay aspect ratio : 16:9\nFrame rate : 23.976 fps\nColor space : YUV\nChroma subsampling : 4:2:0\nBit depth : 8 bits\nScan type : Progressive\nCompression mode : Lossy\nBits/(Pixel*Frame) : 0.164\nStream size : 309 MiB (88%)\nWriting library : DivX 3330\n\nAudio\nID : 1\nFormat : MPEG Audio\nFormat version : Version 1\nFormat profile : Layer 3\nCodec ID : 55\nCodec ID/Hint : MP3\nDuration : 42mn 4s\nBit rate mode : Constant\nBit rate : 128 Kbps\nChannel(s) : 2 channels\nSampling rate : 48.0 KHz\nCompression mode : Lossy\nStream size : 38.5 MiB (11%)\nAlignment : Aligned on interleaves\nInterleave, duration : 42 ms (1.00 video frame)\nInterleave, preload duration : 504 ms\nWriting library : LAME3.98\n\n\n\nSCREENS &lt;a href=&quot;\nhttp://www.pohrani.com/f/12/AK/gYTl8ia/203.jpg&quot; rel=&quot;nofollow&quot; target=&quot;_NEW&quot;&gt;\nhttp://www.pohrani.com/f/12/AK/gYTl8ia/203.jpg&lt;/a&gt;\n\n","torrent":{"xt":"urn:btih:c122fce8c91a3adf30f0ec7c3f5b0a11cffa48b9","amp;dn":"Falling.Skies.S02E03.HDTV.DivX-Atilla82","amp;tr":["udp%3A%2F%2Ftracker.openbittorrent.com%3A80","udp%3A%2F%2Fopen.demonii.com%3A1337","udp%3A%2F%2Ftracker.coppersurfer.tk%3A6969","udp%3A%2F%2Fexodus.desync.com%3A6969"],"infoHash":"c122fce8c91a3adf30f0ec7c3f5b0a11cffa48b9","infoHashBuffer":{"type":"Buffer","data":[193,34,252,232,201,26,58,223,48,240,236,124,63,91,10,17,207,250,72,185]},"announce":[],"urlList":[]}}